<svg xmlns="http://www.w3.org/2000/svg" viewBox="0 0 839.68 759.27"><defs><style>.cls-1{fill:#383e91;}</style></defs><g id="Capa_1" data-name="Capa 1"><path class="cls-1" d="M521.37,388.57V498.35c0,4.93-2.68,7.65-7.59,7.65l-69.31,0q-35.89,0-71.78,0a12.61,12.61,0,0,0-4.3.76q-14.06,5.1-28.14,10.13c-3.21,1.15-7-.84-8.3-4.33q-3.6-10-7.17-19.93-14.5-40.25-29-80.48L281,371q-7.81-21.64-15.6-43.29-4.1-11.36-8.18-22.7c-1.48-4.12.29-7.78,4.41-9.26l66.25-23.85,67.77-24.41c4.55-1.64,9.1-3.31,13.66-4.94a6.73,6.73,0,0,1,9,4.25c2.81,7.8,5.64,15.59,8.41,23.4a1.38,1.38,0,0,0,1.58,1.09q20,0,40.09,0H514c4.55,0,7.38,2.83,7.38,7.38V388.57Zm-32.75,68a3.09,3.09,0,0,0-.12-.43c-.48-1.3-1-2.6-1.46-3.91q-9.48-26.28-19-52.57L448.38,345l-19-52.68q-7.83-21.72-15.63-43.43c-.66-1.82-1.4-2.16-3.19-1.51q-9.15,3.3-18.29,6.6-28.78,10.38-57.56,20.74-27.22,9.78-54.47,19.54c-5.63,2-11.23,4.11-16.85,6.17-1.79.66-2.1,1.37-1.43,3.22q10.91,30.21,21.8,60.43,9.69,26.91,19.37,53.85,10.06,28,20.17,55.91,6.56,18.18,13.1,36.37c.7,1.93,1.44,2.28,3.38,1.58L368,501.58l42.28-15.22,38-13.68,27.33-9.86,11.42-4.12A2.11,2.11,0,0,0,488.62,456.56ZM459,359.66c1.32,3.69,2.55,7.17,3.85,10.62a1.29,1.29,0,0,0,1,.59q13.14.08,26.27.05a5.18,5.18,0,0,1,3.67,1.46,1.54,1.54,0,0,1-.1,2.52,9.24,9.24,0,0,1-3.25,1.26,31.48,31.48,0,0,1-4.66.09H465c1.21,3.38,2.4,6.52,3.45,9.71a1.85,1.85,0,0,0,2.13,1.53q9.43-.12,18.87,0a9,9,0,0,1,3.76.9,1.84,1.84,0,0,1,0,3.47,9.56,9.56,0,0,1-3.87,1c-3.32.13-6.66,0-10,0h-8.39c1.33,3.69,2.57,7.2,3.89,10.68.11.27.8.46,1.21.46,4.49,0,9-.06,13.45.08a9.1,9.1,0,0,1,3.93,1.1,1.71,1.71,0,0,1,0,3.11,9.67,9.67,0,0,1-3.69,1.09c-2,.17-4,0-5.92,0h-6.89c1.26,3.5,2.49,6.84,3.65,10.21a1.33,1.33,0,0,0,1.53,1c2.5,0,5-.09,7.52,0a9.15,9.15,0,0,1,3.42.8c1.8.88,1.8,2.81,0,3.7a9,9,0,0,1-3.42.78c-2.19.12-4.38,0-6.69,0,.23.7.38,1.2.56,1.7,2.65,7.33,5.4,14.63,7.89,22,.68,2,1.5,3.18,3.59,3.89,3.56,1.21,4.61,4.16,2.94,7.5a25.49,25.49,0,0,1-2.4,3.4,8.32,8.32,0,0,1-.68.77l.09.36h7.6c.63,0,1.32-.07,1.34.84s-.62.95-1.28.93l-9.48-.39a1.83,1.83,0,0,0-.94.15c-3.46,2.05-7.27,2.37-11.17,2.49a15,15,0,0,0-4.52.93c-2.41.86-4.63,2.35-7.38,2a9.41,9.41,0,0,1-.28,1.7,6,6,0,0,1-.76,1.17c-.33-.35-.86-.65-.94-1a25,25,0,0,1-.25-3.15c-1.51.55-2.88,1.09-4.27,1.52a1.51,1.51,0,0,0-1.12,1.38c-.7,3.37-1.36,6.75-2.29,10.05a45,45,0,0,1-2.51,6c-.16.34-.7.81-.94.75s-.67-.58-1-.94a1.49,1.49,0,0,1-.2-.57,16.78,16.78,0,0,1,1.51-12.19c.46-.87,1-1.7,1.61-2.72L385,500.78l.06.21h89.78l4.56,0c11.35,0,22.7,0,34,0,2.52,0,3-.39,3-2.88q0-36.93,0-73.87,0-36.45,0-72.89V278.6c0-1.62-.67-2.29-2.33-2.3H430.34c-.42,0-.85,0-1.35.06.13.42.19.66.28.89q7.64,21.19,15.24,42.39a1.88,1.88,0,0,0,2.17,1.49q21.29-.06,42.56,0a9.71,9.71,0,0,1,4,1,1.8,1.8,0,0,1,0,3.38,9.21,9.21,0,0,1-4,1c-13.11.06-26.22,0-39.34,0H447c1.32,3.68,2.54,7.11,3.83,10.52a1.43,1.43,0,0,0,1.08.64c1.85.07,3.7,0,5.55,0,10.69,0,21.38,0,32.07,0a8.66,8.66,0,0,1,3.81,1.09,1.73,1.73,0,0,1,0,3.17,8.61,8.61,0,0,1-3.82,1c-11.8.08-23.6.05-35.4.06-.35,0-.7,0-1.16.06,1.22,3.39,2.43,6.65,3.56,9.94a1.52,1.52,0,0,0,1.73,1.24q15.48-.06,30.95,0a9.4,9.4,0,0,1,3.78.81,1.92,1.92,0,0,1,0,3.68,9.28,9.28,0,0,1-3.67.8c-9.45.07-18.91,0-28.36,0ZM487.59,464c1.5.37,2.71.72,4,1a1.48,1.48,0,0,0,1.13-.24,21.94,21.94,0,0,0,3.2-3.19c2.05-2.85.94-5.6-2.48-6.53C494,459.46,492.93,461.19,487.59,464Zm1.81,2.56c-1.29-.44-2.45-.74-3.52-1.23a2.94,2.94,0,0,0-2.46,0c-2,.76-4,1.43-6,2.16-2.79,1-5.57,2-8.36,3.06a3.76,3.76,0,0,0,2.26.21,24.23,24.23,0,0,0,3.62-1.77,7.79,7.79,0,0,1,5.73-1.27A14.6,14.6,0,0,0,489.4,466.52ZM456.06,487a35.86,35.86,0,0,0,3.3-11.35A14.15,14.15,0,0,0,456.06,487Z"/><path class="cls-1" d="M558.26,368.5l15.53,2.4c-.33,2.23-.63,4.37-1,6.52q-1.79,11.74-3.59,23.49t-3.58,23.5c-.13.85-.26,1.71-.38,2.56a6.6,6.6,0,0,1-7.88,5.75c-.69-.12-1.38-.21-2.07-.32a6.44,6.44,0,0,1-5.64-7.38c.46-3.75,1.08-7.47,1.65-11.21q1.78-11.81,3.6-23.62C556,383,557.14,375.85,558.26,368.5Z"/><path class="cls-1" d="M574,369.26l-15.48-2.35c.21-1.53.4-3,.62-4.49q2.83-18.63,5.67-37.24,1.3-8.58,2.66-17.16a6.5,6.5,0,0,1,4-5.47c.47-.19,1-.33,1.37-.46-.64,4.26-1.27,8.42-1.91,12.58l-6.09,40c-.16,1.06-.32,2.11-.45,3.17a3.65,3.65,0,0,0,3.09,4.19,3.7,3.7,0,0,0,4.15-3.17c.84-5.44,1.65-10.89,2.48-16.33l5.55-36.42c.13-.85.21-1.7.33-2.67a5.45,5.45,0,0,1,3,4.6,36.38,36.38,0,0,1-.58,6.23q-2.49,16.68-5.07,33.34c-.87,5.68-1.77,11.34-2.65,17C574.49,366.08,574.27,367.58,574,369.26Z"/><path class="cls-1" d="M565,357.88c.51-3.37,1-7,1.61-10.6q3-19.92,6.08-39.84c.2-1.3.44-2.58.66-3.88a3,3,0,0,1,6.06.56c-.16,1.8-.49,3.58-.76,5.37q-3.72,24.5-7.45,49a3.12,3.12,0,1,1-6.2-.59Z"/><path class="cls-1" d="M551.9,462.4a6.72,6.72,0,0,1-1.74-4.71c-.12-8.29-.37-16.58-.57-24.87,0-1.34,0-2.69,0-4,3.42,5.85,8.86,6.77,14.59,2.28-.92,2.76-1.78,5.36-2.65,7.95l-6.78,20.16A6,6,0,0,1,551.9,462.4Z"/><path class="cls-1" d="M390.77,320.88l-6.4,2.34,10.09,28-52.32,18.88c-3.4-9.35-6.75-18.59-10.14-27.93l-6.41,2.29,22.54-39.59Zm-37.93,28,2.18,6,8-2.9-2.17-6Zm7-5.63c-.73-2-1.43-3.94-2.16-6l-8,2.9,2.18,5.94Zm14.53,4.61-2.17-6-8,2.88,2.17,6Zm-13.3-11.8,2.16,6,8-2.89-2.17-6Zm-10-19.63a3.44,3.44,0,0,0,3.47-3.28,3,3,0,0,0-3.17-2.79,3.51,3.51,0,0,0-3.46,3.31A2.93,2.93,0,0,0,351.11,316.43Z"/><path class="cls-1" d="M322.16,399.11a13.68,13.68,0,0,1-1.84-.47,1.71,1.71,0,0,1-.93-2.53,5.3,5.3,0,0,1,3.18-2.55l29.06-10.51L387.3,370.2c12.2-4.39,24.38-8.83,36.6-13.16a9.29,9.29,0,0,1,4.19-.39,1.73,1.73,0,0,1,1.09,3,8.4,8.4,0,0,1-3.25,2.27c-12.25,4.49-24.53,8.88-36.8,13.3l-54.07,19.51c-3.4,1.22-6.79,2.47-10.2,3.66C324,398.74,323.05,398.89,322.16,399.11Z"/><path class="cls-1" d="M339.22,445.93c-.69-.12-1.15-.15-1.58-.27-1.52-.42-2.17-1.88-1.15-3a9,9,0,0,1,3.34-2.35c4.16-1.65,8.39-3.1,12.6-4.61l29.38-10.59L421,411c6.8-2.44,13.57-4.95,20.39-7.31a7.67,7.67,0,0,1,3.72-.19,1.72,1.72,0,0,1,1.05,3,8.16,8.16,0,0,1-3.14,2.22c-9.88,3.66-19.81,7.21-29.73,10.78q-16,5.79-32.07,11.57c-7.95,2.85-15.92,5.65-23.87,8.51-5.05,1.81-10.06,3.71-15.11,5.53C341.16,445.48,340.07,445.69,339.22,445.93Z"/><path class="cls-1" d="M333.88,430.22c-1.56-.06-2.75-.12-3.34-1.36-.41-.88.15-2.17,1.4-3a11.49,11.49,0,0,1,2.74-1.36q27.15-9.83,54.31-19.61,23.22-8.37,46.47-16.69a8.59,8.59,0,0,1,3.6-.4c1.84.17,2.55,1.82,1.35,3.2a8.09,8.09,0,0,1-3.17,2.18c-12.84,4.7-25.7,9.32-38.56,14L336,429.68A21.44,21.44,0,0,1,333.88,430.22Z"/><path class="cls-1" d="M327.81,414.63a8.07,8.07,0,0,1-1-.07c-2.08-.4-2.75-2-1.3-3.57a8.44,8.44,0,0,1,3.05-2c10.67-3.89,21.38-7.7,32.07-11.56q21.3-7.66,42.6-15.37c4.63-1.67,9.29-3.26,13.92-4.93,4.2-1.51,8.35-3.15,12.57-4.58a8.85,8.85,0,0,1,4-.34,1.76,1.76,0,0,1,1.15,3.05,7.1,7.1,0,0,1-2.8,2.08c-6.84,2.53-13.74,4.93-20.6,7.41-8.45,3.05-16.87,6.16-25.31,9.21q-27.78,10-55.58,20c-.87.31-1.8.49-2.71.73Z"/><path class="cls-1" d="M319.26,305.18a4.68,4.68,0,0,1-4.56-3.83,4.59,4.59,0,0,1,3-5.08c2.84-1.07,5.72-2.06,8.57-3.08L366,278.9a4.52,4.52,0,1,1,3.14,8.47c-4.58,1.68-9.2,3.25-13.78,4.91-7.95,2.87-15.88,5.78-23.82,8.66q-5.2,1.89-10.42,3.75C320.54,304.9,319.89,305,319.26,305.18Z"/><path class="cls-1" d="M344.91,461.51c-1.46-.15-2.67-.22-3.11-1.47s.34-2.23,1.3-2.94a9.35,9.35,0,0,1,2.26-1.23q24.13-8.72,48.29-17.35a9,9,0,0,1,2.89-.43c1,0,2.07.31,2.22,1.36a3.43,3.43,0,0,1-.75,2.4,6.36,6.36,0,0,1-2.53,1.65q-18.21,6.64-36.46,13.18c-3.82,1.38-7.63,2.77-11.46,4.11C346.6,461.13,345.59,461.33,344.91,461.51Z"/></g></svg>