<svg xmlns="http://www.w3.org/2000/svg" xmlns:xlink="http://www.w3.org/1999/xlink" viewBox="0 0 839.68 759.27"><defs><style>.cls-1{fill:url(#Degradado_sin_nombre_13);}.cls-2{fill:#fff;}</style><linearGradient id="Degradado_sin_nombre_13" x1="254.61" y1="379.64" x2="585.07" y2="379.64" gradientUnits="userSpaceOnUse"><stop offset="0" stop-color="#383e91"/><stop offset="1" stop-color="#1f2154"/></linearGradient></defs><g id="Capa_1" data-name="Capa 1"><rect class="cls-1" x="254.61" y="214.41" width="330.45" height="330.45" rx="51.53"/><path class="cls-2" d="M345.89,258.64c4.3,1.64,8.91,2.73,12.86,5,20.07,11.5,22.84,39,5.72,54.7l-3.23,3c1.43.84,2.6,1.6,3.82,2.24,17.14,9,26.53,23.34,28.74,42.45.73,6.34-1,8.24-7.24,8.25-30,0-60,0-90,.08-3.88,0-6.4-1.26-7.81-4.81V368.4c.33-1.44.79-2.86,1-4.31,2.27-18.15,11.82-31.28,27.57-40.16,1.39-.78,2.82-1.46,4.67-2.41-1.21-1.16-2-1.92-2.76-2.63-10.18-9.17-13.88-20.71-10.79-33.8,3.28-13.86,12.44-22.46,26.54-25.5a8.78,8.78,0,0,0,1.95-.95Zm36.72,105c-.84-20.21-23-38.55-43.63-36.35-20.94,2.22-40.42,21-37.9,36.35Zm-17.44-70.73a23.66,23.66,0,0,0-47.31,0,23.66,23.66,0,1,0,47.31,0Z"/><path class="cls-2" d="M448.93,500.55c-3.32-2.64-3.61-6.14-3-10,2.86-18.84,12.43-32.83,29.6-41.41.67-.34,1.32-.7,2-1.07a6.52,6.52,0,0,0,.72-.78c-9.44-7.86-14.9-17.75-14.08-30.38a33,33,0,0,1,12-23.8,34.18,34.18,0,0,1,47,2.84c13.58,14.61,11.62,34.36-5.28,51.59,3.25,1.85,6.61,3.44,9.61,5.55,12.89,9,20.56,21.31,22.43,37.07a27.16,27.16,0,0,0,1,3.69v6.72Zm90.37-10.79c-3.14-23.3-23.78-38.92-46.95-36.18-18.28,2.16-36.67,21.12-34.92,36.18Zm-41.62-47.11a23.63,23.63,0,0,0,24-23.42c.1-12.82-10.52-23.88-23-24a23.82,23.82,0,0,0-24.27,23.26A23.41,23.41,0,0,0,497.68,442.65Z"/><path class="cls-2" d="M447.24,301.33c7,0,13.08,0,19.19,0,21.14-.08,35.85,14.33,36.32,35.52.12,5,.75,10.06.54,15.07A7.08,7.08,0,0,1,500.2,357c-1.35.74-4.54.37-5.49-.73-9.21-10.71-21.8-12.79-34.72-14-3.86-.35-7.79-.05-12.72-.05,0,4.05.08,7.86,0,11.67-.16,5.92-3.9,8.08-8.88,4.79Q414.57,343,391,327c-4.47-3-4.52-6.77-.08-9.81q23.52-16.08,47.27-31.82c5-3.29,8.65-1.2,9,4.81C447.4,293.65,447.24,297.19,447.24,301.33Zm-11.47-1.82L402.35,322l34.35,23c0-3,0-4.82,0-6.65-.08-4.37,2.13-6.69,6.42-6.71,6.52,0,13.17-.55,19.53.51,10,1.65,19.76,4.44,29.5,6.72,1.16-15.72-9.48-27.22-25.91-27-5.59.08-11.19.27-16.78.35-11.78.18-11.78.16-12.82-11.46C436.62,300.53,436.28,300.27,435.77,299.51Z"/><path class="cls-2" d="M387.59,468.41c-7,0-13.28,0-19.57,0-20.45.06-35.21-14.4-35.65-34.87-.1-4.66-.82-9.34-.45-14,.19-2.39,1.6-5.47,3.46-6.66,1.16-.75,4.77.89,6.31,2.43,8.47,8.41,19.27,10.9,30.42,12.29,4.91.61,9.95.1,15.49.1,0-4.2-.18-7.89,0-11.56.35-6,4.1-8.1,9-4.84q23.77,15.7,47.3,31.75c4.3,2.93,4.27,6.88,0,9.82q-23.29,15.93-46.74,31.6c-5.32,3.55-9.35,1.23-9.59-5.28C387.48,475.77,387.59,472.28,387.59,468.41Zm11.14,2.42L432.62,448l-34.4-23.09c0,3.39.67,5.92-.18,7.75-1,2.15-3.25,5.16-5.09,5.25-14.34.75-28.71.9-42.33-4.85-2.48-1.05-4.92-2.19-7.54-3.36-2,14.72,9.5,29.86,25.3,28.4,5.54-.51,11.17-.1,16.76-.13C397.46,457.9,397.46,457.9,398.73,470.83Z"/></g></svg>