<svg xmlns="http://www.w3.org/2000/svg" xmlns:xlink="http://www.w3.org/1999/xlink" viewBox="0 0 839.68 759.27"><defs><style>.cls-1{fill:url(#Degradado_sin_nombre_13);}.cls-2{fill:#fff;}</style><linearGradient id="Degradado_sin_nombre_13" x1="254.61" y1="379.64" x2="585.07" y2="379.64" gradientUnits="userSpaceOnUse"><stop offset="0" stop-color="#383e91"/><stop offset="1" stop-color="#1f2154"/></linearGradient></defs><g id="Capa_1" data-name="Capa 1"><rect class="cls-1" x="254.61" y="214.41" width="330.45" height="330.45" rx="51.53"/><path class="cls-2" d="M313.71,379.61q0-43.77,0-87.54c0-8.11,4.41-14.8,11.66-17.39a18.82,18.82,0,0,1,6.11-1.13q88.33-.07,176.68,0a17.86,17.86,0,0,1,17.76,17.91q0,23.61,0,47.23,0,38.42,0,76.82c0,17.23-.13,34.46.05,51.68a18.37,18.37,0,0,1-18.65,18.62c-40-.11-80,0-120,0q-27.54,0-55.07,0c-9.74,0-17.08-6.37-18.4-15.91a21,21,0,0,1-.12-2.86Q313.7,423.29,313.71,379.61Zm201.6-5.34c0-.41.05-.72.05-1q0-40.75,0-81.49a8.78,8.78,0,0,0-.53-3c-1.13-3-3.84-4.67-7.36-4.67H426.27c-.35,0-.69,0-1.09.05v90.14ZM414.44,475.15V385H324.33c0,.35,0,.6,0,.84q0,40.86,0,81.7a8.51,8.51,0,0,0,.41,2.6c1.06,3.2,3.83,5,7.55,5h82.18ZM324.29,374.24h90.14V284.08h-82c-5.16,0-8.15,3-8.15,8.18v82ZM515.35,385H425.21v90.15h82c5.17,0,8.15-3,8.15-8.18V385Z"/><path class="cls-2" d="M450.3,325.32h41.15v10.45H450.3Z"/><path class="cls-2" d="M350.42,420.31l7.63-7.61,10.61,10.74,10.69-10.81,7.48,7.61-10.62,10.5,11,10.81-7.63,7.63-10.67-10.77-10.77,10.92-7.5-7.58,10.76-10.62Z"/><path class="cls-2" d="M363.48,351.11V335.88h-15.3V325.3h15.26V310h10.61v15.27h15.31v10.57H374.07v15.28Z"/><path class="cls-2" d="M491.48,445.55h-41.2V435.09h41.2Z"/><path class="cls-2" d="M450.28,426.82V416.41h41.18v10.41Z"/></g></svg>