<svg xmlns="http://www.w3.org/2000/svg" xmlns:xlink="http://www.w3.org/1999/xlink" viewBox="0 0 839.68 759.27"><defs><style>.cls-1{fill:url(#Degradado_sin_nombre_13);}.cls-2{fill:#fff;}</style><linearGradient id="Degradado_sin_nombre_13" x1="254.61" y1="379.64" x2="585.07" y2="379.64" gradientUnits="userSpaceOnUse"><stop offset="0" stop-color="#383e91"/><stop offset="1" stop-color="#1f2154"/></linearGradient></defs><g id="Capa_1" data-name="Capa 1"><rect class="cls-1" x="254.61" y="214.41" width="330.45" height="330.45" rx="51.53"/><path class="cls-2" d="M539.56,399.15l-86.73-60.86Q424,318,395.09,297.77a7.51,7.51,0,0,0-7.41-.87q-8,3.24-16,6.44L364,306.39c-1.92.77-3.84,1.54-5.75,2.33a5.36,5.36,0,0,0-3.26,3.9,47,47,0,0,0-56.53,53.44c2.84,17.2,12.64,29.46,29.13,36.44l.17.07-.33,76.83a12.25,12.25,0,0,0,11.94,12.32h.39A12.25,12.25,0,0,0,351.91,480c.06-1.16.06-2.33.06-3.49v-.44h6.57a5.66,5.66,0,0,0,1.13-.1c0,.07,0,.13,0,.2a5.4,5.4,0,0,0,5.43,5.41H512.22V411.28h20.41c1.36,0,2.7,0,4,0a6.32,6.32,0,0,0,6.05-4.49,6.4,6.4,0,0,0-2.24-6.94C540.21,399.6,539.91,399.39,539.56,399.15Zm-190.71,2.7-.2,25.39a9.14,9.14,0,0,0-.83.55,12.51,12.51,0,0,0-3.75,4.11,14.59,14.59,0,0,0-.26,12.47,10.34,10.34,0,0,0,7.4,6,9.15,9.15,0,0,0-1.82,1.81,10.3,10.3,0,0,0-2.11,6.43,8.73,8.73,0,0,0,3.14,7.1h-.14a9.48,9.48,0,0,0-3.82.83,8.27,8.27,0,0,0-4.82,7.76V476c0,1.15,0,2.31-.06,3.46a1.74,1.74,0,0,1-1.31,1.8,1.6,1.6,0,0,1-2-.53,1.87,1.87,0,0,1-.51-1.52l.33-78.28a7.42,7.42,0,0,0-5.22-7.49c-13.54-5.18-21.66-14.78-24.13-28.53a36.63,36.63,0,0,1,29.37-42.43,38.06,38.06,0,0,1,6.92-.63,36.8,36.8,0,0,1,26.78,62,37.33,37.33,0,0,1-17.14,10.33A7.49,7.49,0,0,0,348.85,401.85Zm10.35,0a2,2,0,0,1-.08.41l-2-.07v-.06l.65-.19Zm82.73,69H411.16V408.45h30.77Zm59.53-70.24v70.23H454.33v-64.1A10.62,10.62,0,0,0,443.85,396H409.24a10.62,10.62,0,0,0-10.48,10.73v64.1H365.21a6,6,0,0,0-1.29.23c0-.14.05-.25.05-.4l0-7.14a5.09,5.09,0,0,0-3.64-5.09c2.36-.68,3.66-2.52,3.69-5.33,0-2.27,0-4.55,0-6.82,0-3.39-2-5.53-5.46-5.71l-1.13-.05c-1.18-.06-2.36-.12-3.54-.2-.87-.06-.89-.47-.9-.71a23.58,23.58,0,0,1,0-2.66c0-.31.12-.61.68-.68,3.61-.5,5.16-2.27,5.19-5.92l.22-26.73a43.7,43.7,0,0,0,10.34-4.72c13.36-8.44,20.91-20.51,22.42-35.86,1.25-12.73-2.33-24.33-10.65-34.49a46.1,46.1,0,0,0-14.56-11.73l2.66-1.07c6.86-2.74,13.73-5.49,20.82-8.38q36.19,25.48,72.46,50.89L523,400.63Z"/><path class="cls-2" d="M561,391.26a5.9,5.9,0,0,0-2.49-3.61l-37.73-27.46q-20.53-14.93-41.08-29.85c0-3.64,0-7.27,0-10.91V311.2a7.74,7.74,0,0,0-2.74-6.07c-1.58-1.36-3.14-2.74-4.69-4.12l-4.45-3.93q-5.36-4.72-10.73-9.43a7,7,0,0,0-9.26-.15,7.2,7.2,0,0,0-2.56,5.84q0,9,0,18L441,308.31l-45.62-32.1a7.4,7.4,0,0,0-7.32-.85L355.53,288.3l-10.65,4.22a13.78,13.78,0,0,0-2.47,1.11,5.67,5.67,0,0,0-2.66,5.1,5.54,5.54,0,0,0,3.39,4.47,5.46,5.46,0,0,0,4.32-.16q21.51-8.55,43-17.13c3.45,2.45,6.92,4.88,10.38,7.31l43.66,30.7a7.14,7.14,0,0,0,11.51-6c0-2.86,0-5.72,0-8.59V306l0-5q6.48,5.73,13,11.43V331.8a7.44,7.44,0,0,0,3.15,6.29l78.17,56.83.58.44a17.56,17.56,0,0,0,2.21,1.5,5.78,5.78,0,0,0,2.73.68,5.18,5.18,0,0,0,5.19-6.28Z"/><path class="cls-2" d="M353.05,331.16a13.32,13.32,0,0,0-9.5-4h-.05A13.43,13.43,0,0,0,334,350a13.2,13.2,0,0,0,9.4,4h.07a13.43,13.43,0,0,0,9.63-22.87Zm-6.46,9.44a3.13,3.13,0,0,1-.91,2.24,3.92,3.92,0,0,1-2.2.86,3.08,3.08,0,0,1-3.05-3.05,3.19,3.19,0,0,1,.92-2.25,3,3,0,0,1,2.11-.88h0a3.12,3.12,0,0,1,2.25.92,3,3,0,0,1,.88,2.16Z"/></g></svg>