<svg xmlns="http://www.w3.org/2000/svg" viewBox="0 0 839.68 759.27"><defs><style>.cls-1{fill:#383e91;}</style></defs><g id="Capa_1" data-name="Capa 1"><path class="cls-1" d="M497.61,515.78H450.85a6,6,0,0,1-2.1-.38c-4.59-1.71-10-5.76-10-15.35.1-16,.08-32.26.06-48l0-10.09c0-5.35-2.53-7.85-7.94-7.87-6.34,0-12.78,0-19,0h-2.54c-6.09,0-8.46,2.35-8.46,8.36q0,6.62,0,13.25c0,14.53,0,29.55.06,44.32.06,9.61-5.38,13.66-9.95,15.37a6.1,6.1,0,0,1-2.11.38H342.08a6,6,0,0,1-2.57-.58,33.33,33.33,0,0,1-19.16-10.82,35.82,35.82,0,0,1-8.82-24.31c.24-17.11.19-34.54.13-51.39,0-6.28,0-12.75,0-19.17a29.31,29.31,0,0,1-24.53-16.14,34.28,34.28,0,0,1-2.33-6c-.24-.75-.46-1.46-.69-2.12a6,6,0,0,1-.35-2v-7.11a5.93,5.93,0,0,1,.12-1.19c1.85-9.17,7.38-15.28,13.38-21.25,24.75-24.63,49.86-49.75,74.14-74l25.95-26c6.67-6.66,14.46-10.19,22.52-10.19h0c8.06,0,15.84,3.52,22.5,10.18q51.75,51.72,103.48,103.46l.07.07c.94.94,1.92,1.92,2.88,3.05A29.9,29.9,0,0,1,531.57,409a34.07,34.07,0,0,1-3.51.45q0,9.78,0,19.54c0,17.59,0,35.77-.08,53.67-.08,14.35-10.33,27.68-24.36,31.7-1.07.3-2.13.57-3.15.84l-1.34.34A5.64,5.64,0,0,1,497.61,515.78Zm-45.54-12h44.77l.64-.16c1-.26,1.92-.5,2.84-.76,9-2.57,15.59-11.07,15.64-20.2.1-17.86.09-36,.08-53.59q0-11,0-22.08v-3.11a6,6,0,0,1,5.53-6c1-.09,2-.14,2.93-.19a40.16,40.16,0,0,0,4.87-.46A17.87,17.87,0,0,0,539.62,368c-.64-.76-1.41-1.52-2.23-2.34l-.06-.06L433.85,262.17c-8.9-8.89-19.12-8.89-28,0q-13,13-25.95,26c-24.29,24.29-49.4,49.41-74.17,74.06-4.66,4.63-8.63,9-9.95,14.56v5.46l.49,1.54a24.5,24.5,0,0,0,1.46,3.94c3.39,6.35,8.35,9.49,15.62,9.86.64,0,1.34,0,2.07.05H317a6.89,6.89,0,0,1,2.41.52l.22.08a6,6,0,0,1,4.06,5.69v2.83c0,7.29,0,14.71,0,21.89.05,16.9.11,34.38-.13,51.59-.18,13.06,9.32,22.06,18.62,23.21a6.78,6.78,0,0,1,1.34.31h44.09c.78-.44,1.28-1.24,1.26-3.65-.09-14.81-.07-29.86-.05-44.41q0-6.62,0-13.24c0-6.31,1.85-11.33,5.49-14.95s8.66-5.43,15-5.43h2.54c6.25,0,12.71,0,19.07,0,5.88,0,10.87,1.91,14.44,5.46s5.49,8.56,5.49,14.43V452c0,15.76,0,32-.05,48.08C450.78,502.52,451.29,503.31,452.07,503.75Zm-135.4-94.09h0Z"/></g></svg>