<svg xmlns="http://www.w3.org/2000/svg" viewBox="0 0 839.68 759.27"><defs><style>.cls-1{fill:#383e91;}</style></defs><g id="Capa_1" data-name="Capa 1"><path class="cls-1" d="M519.28,360.41h25.2a10,10,0,0,0,10-10V287.58a10,10,0,0,0-10-10H441.41a10,10,0,0,0-10,10v62.84a10,10,0,0,0,10,10H465l-9.42,19.51H409.14a33.54,33.54,0,0,0-33.5-33.18H353.15a33.54,33.54,0,0,0-33.5,33.18H267.86a3,3,0,0,0-3,3V388a3,3,0,0,0,3,3h12.22a5.6,5.6,0,0,1,5.59,5.6v139h11V459.49a5.59,5.59,0,0,1,5.59-5.59h17.34v9.26a10.14,10.14,0,0,0,10.14,10.14h30.11v50.78h-18.5a2.57,2.57,0,0,0-2.57,2.58v5.87a2.58,2.58,0,0,0,2.57,2.58H389.5a2.59,2.59,0,0,0,2.58-2.58v-5.87a2.58,2.58,0,0,0-2.58-2.58H370.91V473.3H399a10.14,10.14,0,0,0,10.14-10.14V453.9h128.7a5.59,5.59,0,0,1,5.59,5.59v76.09h11v-139a5.6,5.6,0,0,1,5.59-5.6h11.71a3,3,0,0,0,3-3V382.9a3,3,0,0,0-3-3H530.35ZM296.7,437.28V396.54a5.6,5.6,0,0,1,5.59-5.6h17.34v51.93H302.29A5.59,5.59,0,0,1,296.7,437.28Zm101.43,25H330.66v-82a22.52,22.52,0,0,1,22.49-22.49h22.49a22.52,22.52,0,0,1,22.49,22.49Zm119.55-82.36H467.81l9.41-19.51H506.6Zm-75.23-91.3h101v60.76h-101Zm95.4,154.25H409.15V390.94h128.7a5.6,5.6,0,0,1,5.59,5.6v40.74A5.59,5.59,0,0,1,537.85,442.87Z"/><path class="cls-1" d="M264.94,226.09v6.23a2.4,2.4,0,0,0,2.4,2.4h88.17a4.37,4.37,0,0,1,4.37,4.37v19.83a43.24,43.24,0,0,0-37.71,38.68,9,9,0,0,0,2.29,6.95,8.91,8.91,0,0,0,6.6,2.94h27.82V320.8a1.9,1.9,0,0,0,1.9,1.9H368a1.91,1.91,0,0,0,1.91-1.9V307.49h29.82a8.89,8.89,0,0,0,6.6-2.94,9,9,0,0,0,2.29-6.95,43.24,43.24,0,0,0-37.71-38.68V239.09a4.37,4.37,0,0,1,4.37-4.37H572.41a2.4,2.4,0,0,0,2.4-2.4v-6.23a2.4,2.4,0,0,0-2.4-2.39H267.34A2.4,2.4,0,0,0,264.94,226.09Zm132.41,70.37h-63.9a32.42,32.42,0,0,1,63.9,0Z"/></g></svg>