<svg xmlns="http://www.w3.org/2000/svg" xmlns:xlink="http://www.w3.org/1999/xlink" viewBox="0 0 839.68 759.27"><defs><style>.cls-1{fill:url(#Degradado_sin_nombre_13);}.cls-2{fill:#fff;}</style><linearGradient id="Degradado_sin_nombre_13" x1="254.61" y1="379.64" x2="585.07" y2="379.64" gradientUnits="userSpaceOnUse"><stop offset="0" stop-color="#383e91"/><stop offset="1" stop-color="#1f2154"/></linearGradient></defs><g id="Capa_1" data-name="Capa 1"><rect class="cls-1" x="254.61" y="214.41" width="330.45" height="330.45" rx="51.53"/><path class="cls-2" d="M419.66,499.73c-66.27,0-119.93-53.82-119.91-120.23A120,120,0,0,1,420.11,259.55c66.36.06,119.89,53.9,119.82,120.51C539.86,446.14,486,499.74,419.66,499.73ZM316.92,379.63A102.91,102.91,0,1,0,419.63,276.72C362.85,276.89,316.81,323,316.92,379.63Z"/><path class="cls-2" d="M410.23,298.47h19.2V317.2c4.22.41,8.25.55,12.2,1.23,4.28.73,8.49,1.91,12.69,3a2.4,2.4,0,0,1,1.44,1.7c.09,7.65.06,15.31.05,23a.86.86,0,0,1-.11.35c-3.76-1.66-7.38-3.6-11.22-4.89-8.52-2.86-17.29-4.06-26.15-1.78a21.81,21.81,0,0,0-7.37,3.48c-4.66,3.42-5.2,9.35-1.62,13.88a26.28,26.28,0,0,0,9.65,7.12c5.56,2.67,11.3,5,16.83,7.71a87.88,87.88,0,0,1,11.27,6.57c9.49,6.62,14.16,15.83,14.1,27.45-.05,11-3.67,20.26-12.75,26.92a43,43,0,0,1-16.73,7.12c-.71.15-1.42.32-2.24.51v20.16h-19.2V442c-4-.39-7.81-.67-11.58-1.16a59.12,59.12,0,0,1-18.16-5,2.7,2.7,0,0,1-1.43-1.79c-.09-8.39-.06-16.79-.06-25.66l2.4,1.79c11.37,8.29,24,11.86,38,9.67a24.16,24.16,0,0,0,8.87-3.48c4.92-3.1,5.76-9.67,2.26-14.34S422,395,417,392.53C409.71,389,402.13,386,395.14,382c-8.38-4.85-14.2-12.06-16-21.92-3.24-17.87,5.26-32.58,22.4-38.78a53,53,0,0,1,6.95-2c1.43-.31,1.79-.91,1.77-2.29-.08-5.44,0-10.88,0-16.32Z"/></g></svg>