<svg xmlns="http://www.w3.org/2000/svg" xmlns:xlink="http://www.w3.org/1999/xlink" viewBox="0 0 839.68 759.27"><defs><style>.cls-1{fill:url(#Degradado_sin_nombre_13);}.cls-2{fill:#fff;}</style><linearGradient id="Degradado_sin_nombre_13" x1="254.61" y1="379.64" x2="585.07" y2="379.64" gradientUnits="userSpaceOnUse"><stop offset="0" stop-color="#383e91"/><stop offset="1" stop-color="#1f2154"/></linearGradient></defs><g id="Capa_1" data-name="Capa 1"><rect class="cls-1" x="254.61" y="214.41" width="330.45" height="330.45" rx="51.53"/><path class="cls-2" d="M321,381.77q0-49.22,0-98.43c0-9.83.49-10.33,10.08-10.34,35.93,0,71.86.06,107.8-.1,5.32,0,9.39,1.41,13.13,5.33,9.17,9.6,18.59,19,28.15,28.18a14.76,14.76,0,0,1,4.77,11.75c-.2,14.06.08,28.13-.13,42.18-.08,5.4,1.3,8.27,7.2,9.84,31.63,8.43,50.64,36.33,46.45,67.33-4.26,31.59-30,53.71-62.81,53.77q-71.86.14-143.74,0c-10.66,0-10.9-.26-10.91-11.1Q321,431,321,381.77Zm115.2,93.45c-12.35-12.22-19.48-26.7-19.72-43.89-.09-6.7-2.94-8.43-9-8.36-16.92.22-33.85,0-50.77.06-4.7,0-8-.76-8.08-6.71-.1-6.2,3.05-7.43,8.26-7.39,14.58.12,29.16,0,43.74,0,4.94,0,9.89,0,14.83-.13,6.27-.17,8-5.49,8.15-9.72.2-5.26-5.13-3-7.94-3-18.74-.24-37.49-.07-56.23-.18-5,0-10.86,1.45-10.8-7.11.05-8.17,5.65-6.61,10.32-6.63,21.34-.09,42.7-.26,64,.05,9.28.14,17.92-.44,25.74-6.43,4.52-3.46,10.32-5,16-6,4.34-.81,6.19-3,6.11-7.42-.18-9.11-.23-18.23,0-27.33.16-5.49-2.31-7.41-7.48-7.32-8.33.14-16.67-.22-25,.05-5.93.2-8.57-1.85-8.27-8.09.37-7.79-.26-15.63.16-23.42.35-6.64-1.84-9.34-8.81-9.26q-38.65.42-77.32,0c-6.81-.06-9.12,2.54-9.1,9.22q.24,85.92,0,171.83c0,6.65,2.23,9.31,9.06,9.25,28.64-.23,57.28-.08,85.92-.11C431.75,477.17,433.66,477.56,436.19,475.22Zm-4.69-45.56a46.3,46.3,0,1,0,46.61-46.18C451.87,383.39,431.54,403.54,431.5,429.66Zm23.56-115.41c1,0,2.06.07,3.09,0,2-.17,4.58.64,5.66-1.47,1.24-2.39-1.43-3.54-2.73-4.9-4.09-4.27-8.3-8.44-12.58-12.54-1.16-1.11-2.61-3-4.17-.16C439.65,303.81,445.47,314.22,455.06,314.25Z"/><path class="cls-2" d="M402.86,369c-15.06,0-30.12-.06-45.18,0-5.18,0-9.29-.51-9.2-7.34.08-6.32,3.8-7,8.74-7q46,.09,91.91,0c5.12,0,8.55,1.22,8.49,7.34-.06,6.29-3.9,7-8.81,7C433.49,368.94,418.18,369,402.86,369Z"/><path class="cls-2" d="M510.62,415.78c-.28,2.39-2,3.74-3.41,5.2-10.3,10.33-20.71,20.54-30.88,31-3.64,3.74-6.53,4.3-10.33.22-5.86-6.28-12-12.34-18.23-18.23-3.54-3.35-2.92-5.76.18-9,8.68-9.2,8.74-9.51,17.78-.53,3.94,3.91,6.6,3.76,10.23-.16,5.48-5.93,11.56-11.29,17-17.24,3.72-4.07,6.66-4.12,10.06.11C505.45,410.1,508.91,412.24,510.62,415.78Z"/></g></svg>