<svg xmlns="http://www.w3.org/2000/svg" xmlns:xlink="http://www.w3.org/1999/xlink" viewBox="0 0 839.68 759.27"><defs><style>.cls-1{fill:url(#Degradado_sin_nombre_13);}</style><linearGradient id="Degradado_sin_nombre_13" x1="346.58" y1="379.64" x2="493.1" y2="379.64" gradientUnits="userSpaceOnUse"><stop offset="0" stop-color="#383e91"/><stop offset="1" stop-color="#1f2154"/></linearGradient></defs><g id="Capa_1" data-name="Capa 1"><path class="cls-1" d="M440.72,536.88H378V379.94H346.58V316.85h30.7c.09-2.14.19-3.88.24-5.63.42-12.34-.14-24.8,1.43-37,3.63-28.18,22.6-46.66,50.84-50.76a107.9,107.9,0,0,1,14.49-1c15.81-.12,31.63-.05,47.75-.05v53.77H463.28c-16.57,0-20.25,3.69-20.23,20.31,0,6.63,0,13.25,0,20.23H493.1c-.33,4.46-.59,8.53-1,12.59-1.38,15.6-2.85,31.19-4.17,46.79-.23,2.79-1.3,3.75-4.14,3.72-12.64-.13-25.27-.05-37.91-.05h-5.2Z"/></g></svg>