<svg xmlns="http://www.w3.org/2000/svg" viewBox="0 0 839.68 759.27"><defs><style>.cls-1{fill:#fff;}</style></defs><g id="Capa_1" data-name="Capa 1"><path class="cls-1" d="M577.17,485.86h0L467.12,268a5.87,5.87,0,0,0-10.48,0L401.11,378,367.61,319a5.87,5.87,0,0,0-10.21,0L262.64,485.72a5.88,5.88,0,0,0,5.11,8.78h189.5a5.61,5.61,0,0,0,1.11-.12H571.92a5.87,5.87,0,0,0,5.25-8.52Zm-116.56-3.22-52.54-92.43,53.81-106.54,100.5,199Zm-13.51,0H361.39l40.33-79.85Zm-52.35-92.1-46.58,92.21H277.84l84.66-149Z"/></g></svg>