<svg xmlns="http://www.w3.org/2000/svg" xmlns:xlink="http://www.w3.org/1999/xlink" viewBox="0 0 839.68 759.27"><defs><style>.cls-1{fill:url(#Degradado_sin_nombre_13);}.cls-2{fill:url(#Degradado_sin_nombre_13-2);}.cls-3{fill:url(#Degradado_sin_nombre_13-3);}</style><linearGradient id="Degradado_sin_nombre_13" x1="260.95" y1="379.64" x2="578.73" y2="379.64" gradientUnits="userSpaceOnUse"><stop offset="0" stop-color="#383e91"/><stop offset="1" stop-color="#1f2154"/></linearGradient><linearGradient id="Degradado_sin_nombre_13-2" x1="337.91" y1="379.65" x2="501.69" y2="379.65" xlink:href="#Degradado_sin_nombre_13"/><linearGradient id="Degradado_sin_nombre_13-3" x1="484.42" y1="294.44" x2="525.91" y2="294.44" xlink:href="#Degradado_sin_nombre_13"/></defs><g id="Capa_1" data-name="Capa 1"><path class="cls-1" d="M341.78,538.7c-7.7-1.79-15.67-2.83-23-5.51-25.31-9.22-42.64-26.84-52.34-51.92a84.75,84.75,0,0,1-5.43-30.9c0-47.27,0-94.53,0-141.8.07-39,24.64-72.44,61.83-84,6.35-2,13.08-2.71,19.63-4h155.4c4.82.89,9.73,1.44,14.44,2.72q44.16,12,60.92,54.72c4,10.25,5.48,20.94,5.47,31.9,0,46-.15,92.08.05,138.12.09,21.51-5.84,40.83-19.3,57.67a84.76,84.76,0,0,1-44.56,29.55c-5.77,1.59-11.79,2.33-17.69,3.45ZM550.52,379.65c0-18.61.09-37.22,0-55.82-.07-8.5.13-17.09-1.06-25.46-2.22-15.66-10.35-28.12-22.95-37.69-11.37-8.63-24.32-12-38.38-11.92-31,.08-62.09.05-93.14.1-16.92,0-33.87-.49-50.75.32-27.31,1.33-50.88,23.17-54.15,50.13-1.29,10.62-.88,21.47-.89,32.22,0,40.57-.24,81.15.21,121.71.32,28.56,22.68,53.07,51.08,56.45,9.19,1.09,18.57.75,27.86.77,37.55.07,75.1.13,112.65-.06,8.13,0,16.52,0,24.36-1.88,27.15-6.44,45.12-30.31,45.19-58.93C550.56,426.27,550.52,403,550.52,379.65Z"/><path class="cls-2" d="M419.58,461.59a81.94,81.94,0,1,1,82.11-82C501.64,425.38,464.2,462.22,419.58,461.59Zm.06-28.29c30.2-.41,54.13-24.31,53.89-53.83S448.84,325.54,420,326c-30.33.46-54.22,24.54-53.76,54.17S390.85,433.69,419.64,433.3Z"/><path class="cls-3" d="M504.88,315.14c-11.47-.39-20.84-10.06-20.44-21.09.41-11.45,10-20.64,21.19-20.31S526.39,284,525.9,295C525.39,306.25,515.72,315.51,504.88,315.14Z"/></g></svg>