<svg xmlns="http://www.w3.org/2000/svg" viewBox="0 0 839.68 759.27"><defs><style>.cls-1{fill:#383e91;}</style></defs><g id="Capa_1" data-name="Capa 1"><path class="cls-1" d="M549.65,327.56q0-2.18,0-4.35a5.58,5.58,0,0,0-.39-2.21c-1.75-4.05-3.55-8.15-5.15-11.77q-4.61-10.49-9.22-20.94-1.46-3.3-2.92-6.59-1.91-4.31-3.8-8.6l-.4-.9c-1.58-3.58-3.2-7.28-4.72-10.95A5,5,0,0,0,518,258H331.16a4.93,4.93,0,0,0-4.58,2.4c-1.12,1.94-2.3,3.9-3.45,5.79L321.46,269,316,278.05l-6.63,11.07-3.71,6.16-4.86,8.1c-3,4.94-6.4,10.7-9.76,16.41a6.45,6.45,0,0,0-1.06,3.26c0,2.28,0,4.59,0,6.82,0,2.69.05,5.47,0,8.18a28.32,28.32,0,0,0,1.71,9.58,25,25,0,0,0,8,11.54,2.41,2.41,0,0,1,1.06,2.27c-.05,37.55-.05,75.71-.05,112.63v21.74c0,1.45,0,3.1,1.17,4.26s2.82,1.15,4.27,1.15H419.23a2.61,2.61,0,0,0,.48,0h19.18l95.18,0c3.23,0,4.74-1.52,4.74-4.78V362.29c0-.77,0-1.5,0-2.21.46-.45.94-.9,1.45-1.37.82-.76,1.67-1.55,2.47-2.43a27,27,0,0,0,6.84-17.59C549.71,335,549.68,331.2,549.65,327.56ZM433.47,385.39q0,32.89,0,65.8v41.64H309.16V364.67a32.49,32.49,0,0,0,20.17,0,26.71,26.71,0,0,0,15.11-12c.43.7.89,1.39,1.4,2.07a27.32,27.32,0,0,0,21.42,11.37,33.28,33.28,0,0,0,11.85-1.19A27.71,27.71,0,0,0,394,353.65c.22-.33.42-.66.63-1,4.62,7.36,11.1,11.74,19.25,13,9.6,1.5,17.46-.22,24-5.28a28.44,28.44,0,0,0,7-7.79l.6.95a26.87,26.87,0,0,0,13,10.57,31.75,31.75,0,0,0,21.53.55,26.75,26.75,0,0,0,15.07-11.92A28.29,28.29,0,0,0,510,364.55a33.3,33.3,0,0,0,20.37.09V492.8H515.1V387.54c0-.76,0-1.51,0-2.27,0-2.87-1.56-4.4-4.43-4.44-1.91,0-3.84,0-5.7,0H439.11c-.4,0-.81,0-1.21,0C435,380.91,433.47,382.44,433.47,385.39ZM319.53,288.62q2.36-3.89,4.69-7.77c3.39-5.66,6.14-10.26,8.62-14.46,8.27,0,16.65,0,24.77,0h4.32l-2.29,5.87q-2.4,6.13-4.81,12.28l-1.68,4.27c-.91,2.3-1.82,4.61-2.72,6.91l-2.07,5.34q-1.12,2.93-2.27,5.86c-.77,2-1.54,3.91-2.32,5.87L342,317.36c-.15.38-.32.81-.45,1.09-.3,0-.75,0-1.15,0H301.59l.1-.16q3.74-6.27,7.51-12.53t7.54-12.52Zm129.72,39.79V327h41.66v2.51c0,3.48,0,7.07-.12,10.58a16.61,16.61,0,0,1-3.9,9.83c-4.11,5.26-9.47,7.81-16.43,7.75a22.56,22.56,0,0,1-10.15-2,19.94,19.94,0,0,1-7.85-7,20.75,20.75,0,0,1-3.23-12C449.26,334,449.26,331.28,449.25,328.41Zm83.28-10c-11.16,0-22.69,0-34,0-.83-3.83-1.75-7.69-2.64-11.43-.48-2.06-1-4.11-1.45-6.17-.62-2.68-1.23-5.37-1.83-8.05-.58-2.53-1.15-5.06-1.73-7.58q-1-4.2-2-8.4c-.55-2.33-1.09-4.66-1.64-7-.26-1.14-.51-2.27-.76-3.44h7.36q11.16,0,22.3,0c2.21,5.09,4.49,10.24,6.69,15.23q2.34,5.3,4.67,10.6c1.6,3.66,3.22,7.39,4.78,11q1.89,4.38,3.81,8.78c.93,2.13,1.87,4.23,2.86,6.44Zm-45.85-13.63,1.29,5.45c.63,2.71,1.27,5.43,1.9,8.15H449l-1.26-52h8.18c7.17,0,14.57,0,21.89,0,.67,2.95,1.36,5.9,2,8.84.58,2.47,1.15,4.93,1.72,7.4.47,2,.92,4.09,1.38,6.14q.76,3.42,1.54,6.83C485.22,298.68,486,301.8,486.68,304.83ZM399,329.44c0-.8,0-1.6,0-2.4h41.57c0,.84,0,1.69,0,2.54,0,3.59,0,7.31-.16,10.92a17.12,17.12,0,0,1-4.83,10.64,18.86,18.86,0,0,1-14.9,6.51,32.7,32.7,0,0,1-7.5-.76A18.56,18.56,0,0,1,402,348.61,19.91,19.91,0,0,1,399,337.29C399.05,334.66,399,332,399,329.44Zm.69-11c.25-1.41.49-2.81.75-4.21q1-5.19,1.93-10.38l.53-2.84,1-5.4c.68-3.65,1.37-7.3,2-11,.59-3.18,1.16-6.36,1.73-9.55.4-2.19.79-4.39,1.19-6.59.05-.3.13-.62.22-1s.15-.62.21-.94c0-.06,0-.11,0-.17h7.49c7.38,0,15,0,22.54,0,.05,3.7.15,7.44.24,11.07.06,2.12.11,4.25.16,6.37q.1,4.94.19,9.88c.06,3.37.13,6.73.2,10.1s.17,6.94.25,10.41c0,1.4.08,2.79.11,4.19Zm-50.9,11.19V327h41.52c0,1.29.05,2.58.09,3.84.15,4.44.28,8.63-.83,12.71a18.63,18.63,0,0,1-8.71,11.32c-5.32,3.23-11.55,3.85-18.51,1.85-5.4-1.55-9.41-5.15-11.92-10.7a19,19,0,0,1-1.65-8.15C348.83,335.11,348.82,332.31,348.81,329.6Zm51.9-63.18c-.26,1.54-.51,3-.78,4.51q-.65,3.51-1.31,7l-1.26,6.72c-.53,2.79-1.06,5.58-1.57,8.38q-.5,2.72-1,5.45c-.25,1.4-.49,2.79-.74,4.19q-.9,4.95-1.81,9.9l-.58,3.19-.18,1c-.1.58-.19,1.13-.3,1.67-1.38,0-2.77,0-4.12,0h-36.5c.06-.17.12-.33.19-.49l.19-.49q3-7.65,6-15.31c.92-2.36,1.86-4.71,2.79-7.07,1.25-3.16,2.51-6.32,3.75-9.49.89-2.27,1.76-4.54,2.63-6.82.69-1.8,1.38-3.59,2.08-5.39,1-2.48,1.85-4.74,2.77-6.95C380.9,266.42,391,266.42,400.71,266.42ZM298.42,327h41.71c0,.86,0,1.72,0,2.56,0,3.24.06,6.58-.12,9.82a18.84,18.84,0,0,1-7.82,14.43,19.54,19.54,0,0,1-11.21,3.9,28.51,28.51,0,0,1-8.17-.67,18.67,18.67,0,0,1-6.34-3.1,18.81,18.81,0,0,1-8.05-16v-.1c0-2.28,0-4.6,0-6.84Zm208.22,62.23V492.81H441.9V389.19ZM523,357.61a24.86,24.86,0,0,1-9.22-.64,19.26,19.26,0,0,1-11.23-8.45,20.32,20.32,0,0,1-3.07-11.69c0-2.52,0-5.06,0-7.52,0-.75,0-1.5,0-2.26h41.63c0,1,0,1.91,0,2.87,0,3.45,0,7-.14,10.5a17.45,17.45,0,0,1-1.42,5.32c-2,5-5.9,8.7-11.5,10.88A18.37,18.37,0,0,1,523,357.61Z"/><path class="cls-1" d="M418,381.13H336.4c-2.69,0-5.48,0-8.22,0-2.9,0-4.39,1.52-4.42,4.44,0,.67,0,1.33,0,2,0,.45,0,.9,0,1.35l0,76.57c0,3.31,1.49,4.8,4.86,4.81h89.09c3.75,0,5.2-1.46,5.2-5.22V386C422.89,382.65,421.39,381.13,418,381.13Zm-48.92,49v32.2H331.76v-32.2Zm-37.29-8.76V389.07h37.25v32.26ZM377.51,389c9.73,0,19.6,0,29.15,0H415v32.34h-8.65c-9.46,0-19.24,0-28.87.06C377.5,411.59,377.52,401,377.51,389Zm0,40.93c9.51,0,19.15.06,28.49.08l8.92,0v32.27H377.53V435.5C377.54,433.67,377.54,431.79,377.53,429.92Z"/></g></svg>