<svg xmlns="http://www.w3.org/2000/svg" viewBox="0 0 839.68 759.27"><defs><style>.cls-1{fill:#fff;}</style></defs><g id="Capa_1" data-name="Capa 1"><path class="cls-1" d="M601.35,479h0l-127-251.35a6.77,6.77,0,0,0-12.09,0L398.23,354.54l-38.65-68a6.77,6.77,0,0,0-11.78,0L238.48,478.87A6.78,6.78,0,0,0,244.37,489H463a7.51,7.51,0,0,0,1.28-.13h131a6.78,6.78,0,0,0,6.05-9.83Zm-134.48-3.72L406.26,368.68l62.09-122.91L584.29,475.32Zm-15.58,0H352.4l46.53-92.12ZM390.9,369.06,337.16,475.45H256l97.68-171.86Z"/><path class="cls-1" d="M254.64,518.33l-6.1-1.65a6.76,6.76,0,0,1-2.51-1.25,2.44,2.44,0,0,1-.9-1.94,2.76,2.76,0,0,1,1.31-2.29,6.06,6.06,0,0,1,3.49-1,13.93,13.93,0,0,1,7,2.09l3.62-4.14a18.4,18.4,0,0,0-10.74-3.41,11.08,11.08,0,0,0-7.37,2.6,8.17,8.17,0,0,0-.91,11.45A10.3,10.3,0,0,0,247,522l5.89,1.57a4.47,4.47,0,0,1,2.15,1.2,2.86,2.86,0,0,1,.81,2,2.56,2.56,0,0,1-1.63,2.23,10.23,10.23,0,0,1-4.69.87,17.72,17.72,0,0,1-6.77-1.53l-3.36,4.32a21.93,21.93,0,0,0,10.17,2.66c4,0,7-.8,9-2.42a7.52,7.52,0,0,0,2.94-6,8.21,8.21,0,0,0-1.85-5.47A9.54,9.54,0,0,0,254.64,518.33Z"/><path class="cls-1" d="M366.16,504.76a15.28,15.28,0,1,0,10.8,4.48A14.76,14.76,0,0,0,366.16,504.76ZM373.1,527A9.79,9.79,0,1,1,376,520,9.45,9.45,0,0,1,373.1,527Z"/><path class="cls-1" d="M478.16,505.81h-5.45v28.4h5.45V514.67a9,9,0,0,1,1.49-1.92,8.34,8.34,0,0,1,6.15-2.53v-5.46a13.69,13.69,0,0,0-7.64,2.19Z"/><path class="cls-1" d="M595.61,505.85v1.62a15.27,15.27,0,1,0,0,25.13v1.61h5.46V505.85Zm0,18.72a10.24,10.24,0,0,1-1.78,2.4,9.82,9.82,0,1,1,0-13.87,9.84,9.84,0,0,1,1.78,2.4Z"/></g></svg>