<svg xmlns="http://www.w3.org/2000/svg" viewBox="0 0 839.68 759.27"><defs><style>.cls-1{fill:#383e91;}</style></defs><g id="Capa_1" data-name="Capa 1"><path class="cls-1" d="M456.12,288.46a55.29,55.29,0,0,1,54.45-57.37c27.72-.24,51.12,20.16,54.78,48.45,3.78,29.19-18.33,59.4-51.7,61.23V505.88c0,15.07-7.17,22.3-22.1,22.31H295c-10.94,0-18.32-5.15-20.56-14.49a28.13,28.13,0,0,1-.53-6.43q0-99,0-198.06c0-13.26,7.49-20.72,20.87-20.73q78.22,0,156.46,0ZM284.29,436.9v20.79c0,7.28,1.46,8.74,8.87,8.1,2.34-.21,5.11-.65,6.81-2.05,3.86-3.17,8-6.49,10.57-10.67,11-18.21,37.52-22.29,53.44-13.94,11.4,6,14.74,16.51,8.87,27.91a51.48,51.48,0,0,0-4.07,9c-4.18,14.61.06,27.82,7.28,40.42a2.89,2.89,0,0,0,2.06,1.28c7,.09,13.92,0,21.23,0-.4-1.2-.6-2-.94-2.81a72.32,72.32,0,0,1-5.6-33.16c1-17,2.16-34,3.39-51,.83-11.42,6.25-19.87,16.63-25.09,15.09-7.59,30.68-8.29,46.69-3.65,13.84,4,26,11.33,38,19,1.67,1.07,3.35,2.11,5,3.13,2.72-9.83-.83-16.68-8.91-21.5-2.18-1.3-4.48-2.37-6.7-3.59-3.55-2-7.36-3.57-10.56-6-7.3-5.55-9-13.23-4.68-21.31a31.86,31.86,0,0,1,7-9.38c7-5.88,14.33-11.31,21.75-16.63,2.33-1.67,3.37-3.18,2.61-5L481,332.51c-1,2-2.07,4.25-3.21,6.51-11.15,22.3-28.67,36.31-53.47,40.33-12.54,2-25.21,3.15-37.8,4.9-21.83,3-39.94,12.63-53.68,30.25a98.15,98.15,0,0,1-13.47,13.95C309.41,437,298.13,441.38,284.29,436.9ZM414,298.82c-3.8,20.43-16.56,32.51-34.72,39.7a116.36,116.36,0,0,1-15.89,5.25c-15.94,3.77-32,7-47.93,10.81-10.56,2.56-20.84,6.16-28.32,14.67a11.88,11.88,0,0,0-2.72,7.07c-.25,14.63-.13,29.26-.12,43.89,0,5.25.74,6.16,5.9,7.55a18.75,18.75,0,0,0,17-3.52,129.7,129.7,0,0,0,18.42-17.48c13.34-15.82,29.55-26.92,49.9-30.84,14.45-2.79,29.15-4.29,43.76-6.19,26.44-3.45,43.06-18.89,52.68-42.9a3.8,3.8,0,0,0-.55-3.28,56.83,56.83,0,0,1-12.94-22.63,3.49,3.49,0,0,0-2.52-2C442.08,298.78,428.23,298.82,414,298.82Zm89.13,170.63c-7.87-1.21-14.06-5.21-20.13-9.4-9.94-6.86-19.7-14-29.74-20.68A50.06,50.06,0,0,0,442,433.94c-4.33-1.52-6.05-.36-7.59,3.83-.6,1.66-1.25,3.32-1.94,5-4.92,11.69-6.51,23.7-3.51,36.16,3.45,14.31,11.54,26.17,20,37.8a4.18,4.18,0,0,0,3,1.07c14,.06,28,.1,42,0,5.89,0,9.11-3.38,9.17-9.33.06-7.63,0-15.26,0-22.9ZM555.26,286.3c.37-24-19.26-44.37-43.22-44.78a44.48,44.48,0,0,0-45.34,43.84c-.44,23.92,19.35,44.37,43.26,44.71A44.26,44.26,0,0,0,555.26,286.3ZM436.55,517.8c-3.35-5.49-6.5-10.26-9.27-15.24-7.73-13.86-12.54-28.63-9.58-44.54,1.74-9.38,5.11-18.55,8.68-27.45,2.63-6.54,9.76-9.35,17.11-6.85a87,87,0,0,1,18.74,9c10.79,6.92,21.07,14.64,31.67,21.87,2.65,1.82,5.72,3,9.23,4.84,0-5.47-.46-10.08.11-14.57.75-6-1.46-9.3-6.68-12.27C485,426,474.09,418.24,461.43,413.67c-14.72-5.32-29.26-5.88-43.64,1.22-6.72,3.33-10.56,8.51-11.09,16.07-1.19,17.11-2.6,34.2-3.53,51.32-.62,11.44,1.08,22.58,6.92,32.72.67,1.16,2.08,2.64,3.19,2.67C420.86,517.91,428.46,517.8,436.55,517.8Zm-33.27-219c-19.76,0-38.82,0-57.88.1-1,0-2.33,1.22-3,2.21-13.59,20.14-31,34.77-55.66,39.23-.88.16-2.28,1.13-2.3,1.77-.2,4.77-.11,9.55-.11,14.76a13.41,13.41,0,0,0,1.8-.83,72.17,72.17,0,0,1,24.95-11c13.33-3.17,26.76-5.94,40.13-8.92,12.55-2.81,25-5.95,35.84-13.29A37.13,37.13,0,0,0,403.28,298.82Zm-38.73,219c-.67-1.56-1.15-2.7-1.65-3.83-4.81-10.88-7.94-22.19-5.56-34.07,1.22-6.11,3.88-12,6.38-17.78,2.74-6.32,1.7-10.41-4.33-13.64a24.62,24.62,0,0,0-3.86-1.62c-11.09-3.65-28.57-1.44-36.7,12.71-4.5,7.82-11,13.85-20.15,15.78-4.48.95-9.23.59-14.38.85,0,3.44.21,7.36-.07,11.25-.22,3,1.19,3.92,3.8,4.44,8.35,1.68,16-.43,23-4.65,5.54-3.33,10.71-7.28,16.11-10.86a41.88,41.88,0,0,1,7.25-4.15c5-2,9.57.16,11.2,5.3a29.36,29.36,0,0,1,1.13,7.88c.28,10.42,2.16,20.47,6.64,29.92a4.51,4.51,0,0,0,2.8,2.36A69.53,69.53,0,0,0,364.55,517.8Zm-22.15,0c-1.56-5.8-3.42-11.32-4.48-17s-1.34-11.45-2-17.86c-15.51,11.21-30.28,23.59-51.5,18.87,0,2.94-.16,5.45,0,7.94.36,4.69,3.43,7.95,8.1,8C309.13,517.86,325.75,517.77,342.4,517.77Zm-57.91-187.9c14.24-.29,41.73-18.84,46.17-31-12.87,0-25.67-.12-38.46.07a7.49,7.49,0,0,0-7.63,7.14C284.28,313.9,284.49,321.75,284.49,329.87ZM503,356.59c-7.67,5.08-14.79,9.88-20.14,16.78-4.68,6-3.83,10.13,3,13.77,5.63,3,11.41,5.72,17.18,8.6Z"/><path class="cls-1" d="M367.54,418.72a5.22,5.22,0,1,1-5,5.54A5.31,5.31,0,0,1,367.54,418.72Z"/><path class="cls-1" d="M383.26,398a5.14,5.14,0,1,1-5.13,5.1A5.17,5.17,0,0,1,383.26,398Z"/><path class="cls-1" d="M397.78,361.42a46.59,46.59,0,0,1-7.26-1c-6.28-1.71-7.9-8.16-2.82-12.21a42.14,42.14,0,0,1,11.85-6.67c8.55-3.06,13-9.11,15.24-17.54,2.8-10.52,9.34-17.65,20.16-20.2,15.46-3.63,27,8,23.08,23.38-3.08,12.05-9.71,21.32-21.76,26.17S411.73,360.65,397.78,361.42ZM408,349.67a83.5,83.5,0,0,0,25.72-6.52c8.82-3.86,12.72-11.38,14.45-20.17,1.19-6.08-2.54-9.73-8.75-9.33-6.52.41-12.12,5.1-14.28,12-.68,2.17-1.25,4.39-2.07,6.52A33.33,33.33,0,0,1,408,349.67Z"/><path class="cls-1" d="M315.44,392.84a5.18,5.18,0,0,1-5.17,5.05,5.21,5.21,0,1,1,.33-10.42A5.16,5.16,0,0,1,315.44,392.84Z"/><path class="cls-1" d="M372.82,351a5.15,5.15,0,1,1-5,5.13A5,5,0,0,1,372.82,351Z"/><path class="cls-1" d="M451.05,475.94a5.09,5.09,0,1,1,5.23-5A5.17,5.17,0,0,1,451.05,475.94Z"/><path class="cls-1" d="M482.33,497a5.2,5.2,0,0,1-10.4-.38,5.21,5.21,0,0,1,10.4.38Z"/><path class="cls-1" d="M485.75,316.38c-4.68-.07-6.8-3.85-4.89-8,3.82-8.3,8.29-16.35,11.54-24.87,3.17-8.31,8.4-13.51,16.71-16.67s16.13-7.44,24.14-11.29c2.47-1.19,4.83-1.76,7,.34s1.86,4.71.61,7.33c-5.15,10.77-10.15,21.61-15.43,32.31a10.38,10.38,0,0,1-4.38,4.42c-10.7,5.28-21.53,10.3-32.33,15.38A25,25,0,0,1,485.75,316.38Zm33-30.81c2.23-4.79,4.37-9.37,7-14.91l-15.06,7.19Zm-7.92,7.75-7.78-7.6c-2.14,4.52-4.25,9-6.37,13.44l.68.53Z"/><path class="cls-1" d="M357.12,319.59a5.11,5.11,0,1,1,5.33-4.87A5.14,5.14,0,0,1,357.12,319.59Z"/></g></svg>