<svg xmlns="http://www.w3.org/2000/svg" xmlns:xlink="http://www.w3.org/1999/xlink" viewBox="0 0 839.68 759.27"><defs><style>.cls-1{fill:url(#Degradado_sin_nombre_13);}.cls-2{fill:#fff;}</style><linearGradient id="Degradado_sin_nombre_13" x1="254.61" y1="379.64" x2="585.07" y2="379.64" gradientUnits="userSpaceOnUse"><stop offset="0" stop-color="#383e91"/><stop offset="1" stop-color="#1f2154"/></linearGradient></defs><g id="Capa_1" data-name="Capa 1"><rect class="cls-1" x="254.61" y="214.41" width="330.45" height="330.45" rx="51.53"/><path class="cls-2" d="M380.27,310.2c0-6.58,0-12.67,0-18.77,0-12.65,8.39-21.06,21-21.09q18.57,0,37.14,0c12.6,0,20.93,8.45,21,21.12,0,6.09,0,12.19,0,18.74H463q28,0,56,0c7.64,0,13.37,4.07,15.38,10.94a18.5,18.5,0,0,1,.63,5.09c0,20.2,0,40.41,0,60.61a16.43,16.43,0,0,1-4.88,12.08,5.34,5.34,0,0,0-1,3.45q-.09,32.76,0,65.51c0,13.19-7.82,21.06-20.95,21.06H331.48c-13,0-20.91-7.86-20.91-20.83,0-21.92,0-43.84-.07-65.77a6.8,6.8,0,0,0-1.59-4c-2.48-2.93-4.21-6.13-4.22-10-.05-21.24-.14-42.47,0-63.71.07-8.38,6.87-14.42,15.7-14.44,18.65-.05,37.31,0,56,0Zm123.22,80.89c4.89,0,9.68,0,14.47,0,4.46,0,5.29-.83,5.3-5.25V327.28c0-4.41-.89-5.28-5.29-5.28H321.67c-4.38,0-5.25.88-5.26,5.32q0,29.28,0,58.55c0,.78-.21,1.72.15,2.28.69,1.06,1.68,2.66,2.61,2.71,5.63.25,11.28.12,16.89.12,1-7.84,3.35-10.39,9.63-10.44,10.56-.08,21.12-.06,31.68,0a8.12,8.12,0,0,1,8.06,6.65c.27,1.23.39,2.49.6,3.85h67.71c.05-.82.11-1.48.14-2.14a8.22,8.22,0,0,1,7.17-8.18,29.72,29.72,0,0,1,4.63-.12c9.45,0,18.9-.1,28.35-.07,5.7,0,8.95,3.18,9.29,8.83C503.36,389.82,503.42,390.32,503.49,391.09ZM503.32,403c0,1.59,0,3,0,4.47-.16,5.05-3.62,8.63-8.67,8.67q-16.12.12-32.24,0c-5,0-8.44-3.75-8.52-8.8,0-1.42,0-2.85,0-4.34H385.78c0,1.67,0,3.2,0,4.72a8.42,8.42,0,0,1-8.39,8.41q-16.25.13-32.49,0c-5,0-8.44-3.71-8.56-8.78,0-1.42,0-2.85,0-4.35H322.51c-.05,1-.12,1.83-.12,2.66q0,31.47,0,62.93c0,5.75,2.78,8.52,8.56,8.52H508.63c5.92,0,8.66-2.75,8.66-8.67V403ZM392.18,309.09h55.33c0-6.74.21-13.34-.07-19.92a7.54,7.54,0,0,0-7.67-7q-20-.13-39.92,0c-3.92,0-7.39,2.92-7.58,6.77C392,295.63,392.18,302.31,392.18,309.09Zm99.21,95.16v-11.8H465.82v11.8Zm-143.11-11.9v11.84h25.58V392.35Z"/></g></svg>