<svg xmlns="http://www.w3.org/2000/svg" xmlns:xlink="http://www.w3.org/1999/xlink" viewBox="0 0 839.68 759.27"><defs><style>.cls-1{fill:url(#Degradado_sin_nombre_13);}.cls-2{fill:#fff;}</style><linearGradient id="Degradado_sin_nombre_13" x1="199.16" y1="379.64" x2="640.52" y2="379.64" gradientUnits="userSpaceOnUse"><stop offset="0" stop-color="#383e91"/><stop offset="1" stop-color="#1f2154"/></linearGradient></defs><g id="Capa_1" data-name="Capa 1"><circle class="cls-1" cx="419.84" cy="379.64" r="220.68"/><path class="cls-2" d="M568.51,459.29h0l-104-205.88a5.55,5.55,0,0,0-9.9,0L402.14,357.32l-31.66-55.7a5.55,5.55,0,0,0-9.65,0L271.3,459.15a5.54,5.54,0,0,0,4.82,8.29H455.19a5.71,5.71,0,0,0,1.05-.1H563.55a5.55,5.55,0,0,0,5-8Zm-110.15-3.05L408.72,368.9l50.85-100.68,95,188Zm-12.76,0h-81l38.1-75.45Zm-49.47-87-44,87.14H285.65l80-140.76Z"/></g></svg>