<svg xmlns="http://www.w3.org/2000/svg" xmlns:xlink="http://www.w3.org/1999/xlink" viewBox="0 0 839.68 759.27"><defs><style>.cls-1{fill:url(#Degradado_sin_nombre_13);}</style><linearGradient id="Degradado_sin_nombre_13" x1="301.85" y1="379.64" x2="537.83" y2="379.64" gradientUnits="userSpaceOnUse"><stop offset="0" stop-color="#383e91"/><stop offset="1" stop-color="#1f2154"/></linearGradient></defs><g id="Capa_1" data-name="Capa 1"><path class="cls-1" d="M466.44,318c-.13,5-.27,9.94-.38,14.91q-.45,20.63-.89,41.26-.41,17.43-.85,34.85c-.28,11.54-.61,23.08-.84,34.63a79.93,79.93,0,0,1-7.7,33,82.39,82.39,0,0,1-28.94,33.15,79.56,79.56,0,0,1-23.25,10.41,80.44,80.44,0,0,1-55.74-5.15,80,80,0,0,1-37.35-36.64,82.54,82.54,0,0,1-8.27-29,79.39,79.39,0,0,1,3.17-31.23,82,82,0,0,1,24.07-36.87c3.63-3.24,7.93-5.74,12-8.52A63.93,63.93,0,0,1,358.65,365a81.93,81.93,0,0,1,34.17-3.09c1.44.16,1.52,1,1.46,2-.32,5.91-.63,11.82-1,17.72s-.72,11.67-1.05,17.5c-.2,3.42-.2,3.57-3.56,3.23-8-.83-15.68,0-22.93,3.57-12.17,5.92-19.56,15.6-22.21,28.85-3.48,17.38,6.09,35.91,22.81,43.4a39.8,39.8,0,0,0,49.1-13.33,38.42,38.42,0,0,0,7.12-21.81c.21-11.55.56-23.09.85-34.63s.57-22.95.85-34.42l1.29-52.37c.29-11.76.61-23.52.87-35.28.3-13,.54-26.08.84-39.12.07-3.13.31-6.26.43-9.39,0-1.28.56-1.7,1.87-1.62,15.86.9,31.73,1.72,47.59,2.63,5.16.3,5,.39,4.62,6.05-.37,5.11-.94,10.28-.55,15.35,1.07,14.15,8,24.82,20.26,32,7,4.1,14.76,5,22.6,5.67q6.07.51,12.15.86c1.36.07,1.62.63,1.56,1.89q-.86,18-1.6,36.09c-.12,2.63-.27,2.92-2.82,2.67-10.2-1-20.46-1.59-30.55-3.21a51.59,51.59,0,0,1-18.35-6.74c-4-2.42-8.08-4.77-12-7.32a66.38,66.38,0,0,1-5.44-4.38Z"/></g></svg>