<svg xmlns="http://www.w3.org/2000/svg" xmlns:xlink="http://www.w3.org/1999/xlink" viewBox="0 0 839.68 759.27"><defs><style>.cls-1{fill:url(#Degradado_sin_nombre_13);}.cls-2{fill:url(#Degradado_sin_nombre_13-2);}</style><linearGradient id="Degradado_sin_nombre_13" x1="253.41" y1="379.64" x2="586.27" y2="379.64" gradientUnits="userSpaceOnUse"><stop offset="0" stop-color="#383e91"/><stop offset="1" stop-color="#1f2154"/></linearGradient><linearGradient id="Degradado_sin_nombre_13-2" x1="328.7" y1="379.93" x2="511.17" y2="379.93" xlink:href="#Degradado_sin_nombre_13"/></defs><g id="Capa_1" data-name="Capa 1"><path class="cls-1" d="M258,545.94c1.26-5.65,2.34-10.6,3.47-15.53,4.72-20.49,9.4-41,14.24-61.45a10.28,10.28,0,0,0-1.08-8C223,368.5,269.46,252.21,370.47,220.7,468,190.28,570,254.67,584.55,355.89,598,449.31,531.12,535.52,437.49,545.21a165.68,165.68,0,0,1-92.29-16.67,11.18,11.18,0,0,0-6.84-.67c-25.23,5.61-50.42,11.41-75.63,17.15C261.49,545.3,260.23,545.51,258,545.94Zm30.11-29.66c2.32-.55,3.94-.88,5.53-1.31,17-4.67,34-9.28,50.92-14.09a9.63,9.63,0,0,1,8,1c35.31,19.44,72.27,23,110.26,9.62,82.93-29.15,116.49-129.39,68.76-204.36a134,134,0,0,0-193.69-35.55c-58.08,43.36-72.24,126.18-31.85,186.85a7.15,7.15,0,0,1,.9,7.41c-3.59,9.12-6.94,18.33-10.36,27.52C293.86,500.76,291.13,508.18,288.14,516.28Z"/><path class="cls-2" d="M466.5,466.58A106.59,106.59,0,0,1,411.41,449q-54.51-35.17-78-95.82c-3.71-9.59-5.63-19.66-4.2-30.09,2.06-15.1,17.61-29.27,32.88-29.82,4.8-.17,9,1.18,11.64,5.62,5.44,9,11.06,17.86,16.37,26.92a56.55,56.55,0,0,1,3.74,9c1.82,4.91.87,9.17-3.16,12.7-3.53,3.09-7,6.27-10.42,9.45s-4.05,6.27-1.87,10.61c11.86,23.64,29.16,41.81,53,53.51,3.17,1.56,6.63,2.52,9.95,3.76,4.33,1.61,7.84.28,10.55-3.23,3.12-4,6-8.24,9.14-12.31,5.65-7.45,9.47-8.79,18-4.66a170,170,0,0,1,21.29,12.47c11.93,8.12,14.13,20,6.43,32.31-5.12,8.18-12.77,12.9-22,14.77C478.67,465.45,472.55,465.83,466.5,466.58Z"/></g></svg>